<svg display='none' xmlns="http://www.w3.org/2000/svg">
    <symbol id="twitter" viewBox="0 0 512 512">
                            <g>
                                <path d="M512,97.248c-19.04,8.352-39.328,13.888-60.48,16.576c21.76-12.992,38.368-33.408,46.176-58.016
                                    c-20.288,12.096-42.688,20.64-66.56,25.408C411.872,60.704,384.416,48,354.464,48c-58.112,0-104.896,47.168-104.896,104.992
                                    c0,8.32,0.704,16.32,2.432,23.936c-87.264-4.256-164.48-46.08-216.352-109.792c-9.056,15.712-14.368,33.696-14.368,53.056
                                    c0,36.352,18.72,68.576,46.624,87.232c-16.864-0.32-33.408-5.216-47.424-12.928c0,0.32,0,0.736,0,1.152
                                    c0,51.008,36.384,93.376,84.096,103.136c-8.544,2.336-17.856,3.456-27.52,3.456c-6.72,0-13.504-0.384-19.872-1.792
                                    c13.6,41.568,52.192,72.128,98.08,73.12c-35.712,27.936-81.056,44.768-130.144,44.768c-8.608,0-16.864-0.384-25.12-1.44
                                    C46.496,446.88,101.6,464,161.024,464c193.152,0,298.752-160,298.752-298.688c0-4.64-0.16-9.12-0.384-13.568
                                    C480.224,136.96,497.728,118.496,512,97.248z"/>
                            </g>
                        </symbol>
    <symbol id="instagram" viewBox="0 0 512 512">
                            <g>
	<g>
		<path d="M352,0H160C71.648,0,0,71.648,0,160v192c0,88.352,71.648,160,160,160h192c88.352,0,160-71.648,160-160V160
			C512,71.648,440.352,0,352,0z M464,352c0,61.76-50.24,112-112,112H160c-61.76,0-112-50.24-112-112V160C48,98.24,98.24,48,160,48
			h192c61.76,0,112,50.24,112,112V352z"/>
	</g>
</g>
<g>
	<g>
		<path d="M256,128c-70.688,0-128,57.312-128,128s57.312,128,128,128s128-57.312,128-128S326.688,128,256,128z M256,336
			c-44.096,0-80-35.904-80-80c0-44.128,35.904-80,80-80s80,35.872,80,80C336,300.096,300.096,336,256,336z"/>
	</g>
</g>
<g>
	<g>
		<circle cx="393.6" cy="118.4" r="17.056"/>
	</g>
</g>
                        </symbol>
                        <symbol id="facebook" viewBox="0 0 512 512">
                            <g>
                                <path d="m483.738281 0h-455.5c-15.597656.0078125-28.24218725 12.660156-28.238281 28.261719v455.5c.0078125 15.597656 12.660156 28.242187 28.261719 28.238281h455.476562c15.605469.003906 28.257813-12.644531 28.261719-28.25 0-.003906 0-.007812 0-.011719v-455.5c-.007812-15.597656-12.660156-28.24218725-28.261719-28.238281zm0 0" />
                                <path d="m353.5 512v-198h66.75l10-77.5h-76.75v-49.359375c0-22.386719 6.214844-37.640625 38.316406-37.640625h40.683594v-69.128906c-7.078125-.941406-31.363281-3.046875-59.621094-3.046875-59 0-99.378906 36-99.378906 102.140625v57.035156h-66.5v77.5h66.5v198zm0 0 " fill="white"/>
                            </g>
                        </symbol>
                        <symbol id="vk" viewBox="0 0 24 24">
                            <g>
                                <path d="m19.915 13.028c-.388-.49-.277-.708 0-1.146.005-.005 3.208-4.431 3.538-5.932l.002-.001c.164-.547 0-.949-.793-.949h-2.624c-.668 0-.976.345-1.141.731 0 0-1.336 3.198-3.226 5.271-.61.599-.892.791-1.225.791-.164 0-.419-.192-.419-.739v-5.105c0-.656-.187-.949-.74-.949h-4.126c-.419 0-.668.306-.668.591 0 .622.945.765 1.043 2.515v3.797c0 .832-.151.985-.486.985-.892 0-3.057-3.211-4.34-6.886-.259-.713-.512-1.001-1.185-1.001h-2.625c-.749 0-.9.345-.9.731 0 .682.892 4.073 4.148 8.553 2.17 3.058 5.226 4.715 8.006 4.715 1.671 0 1.875-.368 1.875-1.001 0-2.922-.151-3.198.686-3.198.388 0 1.056.192 2.616 1.667 1.783 1.749 2.076 2.532 3.074 2.532h2.624c.748 0 1.127-.368.909-1.094-.499-1.527-3.871-4.668-4.023-4.878z"/>
                            </g>
                        </symbol>
 </svg>